<mxfile host="app.diagrams.net" modified="2023-07-22T06:47:46.015Z" agent="Mozilla/5.0 (Windows NT 10.0; Win64; x64) AppleWebKit/537.36 (KHTML, like Gecko) Chrome/115.0.0.0 Safari/537.36" etag="_ejsyyiAbQZ9YcypMVw8" version="21.6.5" type="google">
  <diagram name="Page-1" id="2YBvvXClWsGukQMizWep">
    <mxGraphModel grid="1" page="1" gridSize="10" guides="1" tooltips="1" connect="1" arrows="1" fold="1" pageScale="1" pageWidth="850" pageHeight="1100" math="0" shadow="0">
      <root>
        <mxCell id="0" />
        <mxCell id="1" parent="0" />
        <mxCell id="Ou_N5x9fKQxc97PZ3MWn-7" value="create&amp;nbsp; account" style="shape=umlLifeline;perimeter=lifelinePerimeter;whiteSpace=wrap;html=1;container=1;dropTarget=0;collapsible=0;recursiveResize=0;outlineConnect=0;portConstraint=eastwest;newEdgeStyle={&quot;edgeStyle&quot;:&quot;elbowEdgeStyle&quot;,&quot;elbow&quot;:&quot;vertical&quot;,&quot;curved&quot;:0,&quot;rounded&quot;:0};" vertex="1" parent="1">
          <mxGeometry x="200" y="80" width="100" height="330" as="geometry" />
        </mxCell>
        <mxCell id="Ou_N5x9fKQxc97PZ3MWn-10" value="" style="html=1;points=[];perimeter=orthogonalPerimeter;outlineConnect=0;targetShapes=umlLifeline;portConstraint=eastwest;newEdgeStyle={&quot;edgeStyle&quot;:&quot;elbowEdgeStyle&quot;,&quot;elbow&quot;:&quot;vertical&quot;,&quot;curved&quot;:0,&quot;rounded&quot;:0};fillColor=none;" vertex="1" parent="Ou_N5x9fKQxc97PZ3MWn-7">
          <mxGeometry x="35" y="80" width="30" height="190" as="geometry" />
        </mxCell>
        <mxCell id="Ou_N5x9fKQxc97PZ3MWn-5" value="" style="html=1;points=[];perimeter=orthogonalPerimeter;outlineConnect=0;targetShapes=umlLifeline;portConstraint=eastwest;newEdgeStyle={&quot;edgeStyle&quot;:&quot;elbowEdgeStyle&quot;,&quot;elbow&quot;:&quot;vertical&quot;,&quot;curved&quot;:0,&quot;rounded&quot;:0};" vertex="1" parent="1">
          <mxGeometry x="90" y="150" width="30" height="200" as="geometry" />
        </mxCell>
        <mxCell id="Ou_N5x9fKQxc97PZ3MWn-6" value="" style="shape=umlLifeline;perimeter=lifelinePerimeter;whiteSpace=wrap;html=1;container=1;dropTarget=0;collapsible=0;recursiveResize=0;outlineConnect=0;portConstraint=eastwest;newEdgeStyle={&quot;edgeStyle&quot;:&quot;elbowEdgeStyle&quot;,&quot;elbow&quot;:&quot;vertical&quot;,&quot;curved&quot;:0,&quot;rounded&quot;:0};participant=umlActor;" vertex="1" parent="1">
          <mxGeometry x="95" y="80" width="20" height="330" as="geometry" />
        </mxCell>
        <mxCell id="Ou_N5x9fKQxc97PZ3MWn-8" value="Validate" style="shape=umlLifeline;perimeter=lifelinePerimeter;whiteSpace=wrap;html=1;container=1;dropTarget=0;collapsible=0;recursiveResize=0;outlineConnect=0;portConstraint=eastwest;newEdgeStyle={&quot;edgeStyle&quot;:&quot;elbowEdgeStyle&quot;,&quot;elbow&quot;:&quot;vertical&quot;,&quot;curved&quot;:0,&quot;rounded&quot;:0};" vertex="1" parent="1">
          <mxGeometry x="360" y="80" width="100" height="330" as="geometry" />
        </mxCell>
        <mxCell id="Ou_N5x9fKQxc97PZ3MWn-12" value="" style="html=1;points=[];perimeter=orthogonalPerimeter;outlineConnect=0;targetShapes=umlLifeline;portConstraint=eastwest;newEdgeStyle={&quot;edgeStyle&quot;:&quot;elbowEdgeStyle&quot;,&quot;elbow&quot;:&quot;vertical&quot;,&quot;curved&quot;:0,&quot;rounded&quot;:0};fillColor=none;" vertex="1" parent="Ou_N5x9fKQxc97PZ3MWn-8">
          <mxGeometry x="35" y="70" width="30" height="200" as="geometry" />
        </mxCell>
        <mxCell id="Ou_N5x9fKQxc97PZ3MWn-9" value="Database" style="shape=umlLifeline;perimeter=lifelinePerimeter;whiteSpace=wrap;html=1;container=1;dropTarget=0;collapsible=0;recursiveResize=0;outlineConnect=0;portConstraint=eastwest;newEdgeStyle={&quot;edgeStyle&quot;:&quot;elbowEdgeStyle&quot;,&quot;elbow&quot;:&quot;vertical&quot;,&quot;curved&quot;:0,&quot;rounded&quot;:0};" vertex="1" parent="1">
          <mxGeometry x="530" y="80" width="100" height="300" as="geometry" />
        </mxCell>
        <mxCell id="Ou_N5x9fKQxc97PZ3MWn-13" value="" style="html=1;points=[];perimeter=orthogonalPerimeter;outlineConnect=0;targetShapes=umlLifeline;portConstraint=eastwest;newEdgeStyle={&quot;edgeStyle&quot;:&quot;elbowEdgeStyle&quot;,&quot;elbow&quot;:&quot;vertical&quot;,&quot;curved&quot;:0,&quot;rounded&quot;:0};fillColor=none;" vertex="1" parent="Ou_N5x9fKQxc97PZ3MWn-9">
          <mxGeometry x="35" y="70" width="30" height="200" as="geometry" />
        </mxCell>
        <mxCell id="Ou_N5x9fKQxc97PZ3MWn-15" value="send detail" style="html=1;verticalAlign=bottom;endArrow=block;edgeStyle=elbowEdgeStyle;elbow=vertical;curved=0;rounded=0;" edge="1" parent="1">
          <mxGeometry width="80" relative="1" as="geometry">
            <mxPoint x="120" y="190" as="sourcePoint" />
            <mxPoint x="240" y="190" as="targetPoint" />
          </mxGeometry>
        </mxCell>
        <mxCell id="Ou_N5x9fKQxc97PZ3MWn-16" value="validate detail" style="html=1;verticalAlign=bottom;endArrow=block;edgeStyle=elbowEdgeStyle;elbow=vertical;curved=0;rounded=0;" edge="1" parent="1">
          <mxGeometry width="80" relative="1" as="geometry">
            <mxPoint x="270" y="190" as="sourcePoint" />
            <mxPoint x="390" y="190" as="targetPoint" />
          </mxGeometry>
        </mxCell>
        <mxCell id="Ou_N5x9fKQxc97PZ3MWn-17" value="iIf validation is approved" style="html=1;verticalAlign=bottom;endArrow=block;edgeStyle=elbowEdgeStyle;elbow=vertical;curved=0;rounded=0;" edge="1" parent="1" target="Ou_N5x9fKQxc97PZ3MWn-13">
          <mxGeometry width="80" relative="1" as="geometry">
            <mxPoint x="425" y="190" as="sourcePoint" />
            <mxPoint x="545" y="190" as="targetPoint" />
          </mxGeometry>
        </mxCell>
        <mxCell id="Ou_N5x9fKQxc97PZ3MWn-19" value="&lt;span style=&quot;font-weight: normal;&quot;&gt;&lt;font style=&quot;font-size: 10px;&quot;&gt;Reject if validation fails&amp;nbsp;&lt;/font&gt;&lt;/span&gt;" style="text;align=center;fontStyle=1;verticalAlign=middle;spacingLeft=3;spacingRight=3;strokeColor=none;rotatable=0;points=[[0,0.5],[1,0.5]];portConstraint=eastwest;html=1;" vertex="1" parent="1">
          <mxGeometry x="150" y="220" width="80" height="26" as="geometry" />
        </mxCell>
        <mxCell id="Ou_N5x9fKQxc97PZ3MWn-20" value="" style="html=1;verticalAlign=bottom;endArrow=open;dashed=1;endSize=8;edgeStyle=elbowEdgeStyle;elbow=vertical;curved=0;rounded=0;" edge="1" parent="1" source="Ou_N5x9fKQxc97PZ3MWn-8">
          <mxGeometry relative="1" as="geometry">
            <mxPoint x="200" y="250" as="sourcePoint" />
            <mxPoint x="120" y="250" as="targetPoint" />
          </mxGeometry>
        </mxCell>
        <mxCell id="Ou_N5x9fKQxc97PZ3MWn-21" value="Return Balance&amp;nbsp;&amp;nbsp;" style="html=1;verticalAlign=bottom;endArrow=open;dashed=1;endSize=8;edgeStyle=elbowEdgeStyle;elbow=vertical;curved=0;rounded=0;" edge="1" parent="1" target="Ou_N5x9fKQxc97PZ3MWn-5">
          <mxGeometry relative="1" as="geometry">
            <mxPoint x="560" y="310" as="sourcePoint" />
            <mxPoint x="480" y="310" as="targetPoint" />
          </mxGeometry>
        </mxCell>
        <mxCell id="Ou_N5x9fKQxc97PZ3MWn-22" value="User" style="text;align=center;fontStyle=1;verticalAlign=middle;spacingLeft=3;spacingRight=3;strokeColor=none;rotatable=0;points=[[0,0.5],[1,0.5]];portConstraint=eastwest;html=1;" vertex="1" parent="1">
          <mxGeometry x="65" y="120" width="80" height="26" as="geometry" />
        </mxCell>
        <mxCell id="MSEH762dAfrZzI9FpVPi-16" value="check balance&amp;nbsp;" style="shape=umlLifeline;perimeter=lifelinePerimeter;whiteSpace=wrap;html=1;container=1;dropTarget=0;collapsible=0;recursiveResize=0;outlineConnect=0;portConstraint=eastwest;newEdgeStyle={&quot;edgeStyle&quot;:&quot;elbowEdgeStyle&quot;,&quot;elbow&quot;:&quot;vertical&quot;,&quot;curved&quot;:0,&quot;rounded&quot;:0};" vertex="1" parent="1">
          <mxGeometry x="200" y="530" width="100" height="330" as="geometry" />
        </mxCell>
        <mxCell id="MSEH762dAfrZzI9FpVPi-17" value="" style="html=1;points=[];perimeter=orthogonalPerimeter;outlineConnect=0;targetShapes=umlLifeline;portConstraint=eastwest;newEdgeStyle={&quot;edgeStyle&quot;:&quot;elbowEdgeStyle&quot;,&quot;elbow&quot;:&quot;vertical&quot;,&quot;curved&quot;:0,&quot;rounded&quot;:0};fillColor=none;" vertex="1" parent="MSEH762dAfrZzI9FpVPi-16">
          <mxGeometry x="35" y="80" width="30" height="190" as="geometry" />
        </mxCell>
        <mxCell id="MSEH762dAfrZzI9FpVPi-18" value="" style="html=1;points=[];perimeter=orthogonalPerimeter;outlineConnect=0;targetShapes=umlLifeline;portConstraint=eastwest;newEdgeStyle={&quot;edgeStyle&quot;:&quot;elbowEdgeStyle&quot;,&quot;elbow&quot;:&quot;vertical&quot;,&quot;curved&quot;:0,&quot;rounded&quot;:0};" vertex="1" parent="1">
          <mxGeometry x="90" y="600" width="30" height="200" as="geometry" />
        </mxCell>
        <mxCell id="MSEH762dAfrZzI9FpVPi-19" value="" style="shape=umlLifeline;perimeter=lifelinePerimeter;whiteSpace=wrap;html=1;container=1;dropTarget=0;collapsible=0;recursiveResize=0;outlineConnect=0;portConstraint=eastwest;newEdgeStyle={&quot;edgeStyle&quot;:&quot;elbowEdgeStyle&quot;,&quot;elbow&quot;:&quot;vertical&quot;,&quot;curved&quot;:0,&quot;rounded&quot;:0};participant=umlActor;" vertex="1" parent="1">
          <mxGeometry x="95" y="530" width="20" height="330" as="geometry" />
        </mxCell>
        <mxCell id="MSEH762dAfrZzI9FpVPi-20" value="bank server" style="shape=umlLifeline;perimeter=lifelinePerimeter;whiteSpace=wrap;html=1;container=1;dropTarget=0;collapsible=0;recursiveResize=0;outlineConnect=0;portConstraint=eastwest;newEdgeStyle={&quot;edgeStyle&quot;:&quot;elbowEdgeStyle&quot;,&quot;elbow&quot;:&quot;vertical&quot;,&quot;curved&quot;:0,&quot;rounded&quot;:0};" vertex="1" parent="1">
          <mxGeometry x="360" y="530" width="100" height="330" as="geometry" />
        </mxCell>
        <mxCell id="MSEH762dAfrZzI9FpVPi-21" value="" style="html=1;points=[];perimeter=orthogonalPerimeter;outlineConnect=0;targetShapes=umlLifeline;portConstraint=eastwest;newEdgeStyle={&quot;edgeStyle&quot;:&quot;elbowEdgeStyle&quot;,&quot;elbow&quot;:&quot;vertical&quot;,&quot;curved&quot;:0,&quot;rounded&quot;:0};fillColor=none;" vertex="1" parent="MSEH762dAfrZzI9FpVPi-20">
          <mxGeometry x="35" y="70" width="30" height="200" as="geometry" />
        </mxCell>
        <mxCell id="MSEH762dAfrZzI9FpVPi-22" value="Database" style="shape=umlLifeline;perimeter=lifelinePerimeter;whiteSpace=wrap;html=1;container=1;dropTarget=0;collapsible=0;recursiveResize=0;outlineConnect=0;portConstraint=eastwest;newEdgeStyle={&quot;edgeStyle&quot;:&quot;elbowEdgeStyle&quot;,&quot;elbow&quot;:&quot;vertical&quot;,&quot;curved&quot;:0,&quot;rounded&quot;:0};" vertex="1" parent="1">
          <mxGeometry x="530" y="530" width="100" height="300" as="geometry" />
        </mxCell>
        <mxCell id="MSEH762dAfrZzI9FpVPi-23" value="" style="html=1;points=[];perimeter=orthogonalPerimeter;outlineConnect=0;targetShapes=umlLifeline;portConstraint=eastwest;newEdgeStyle={&quot;edgeStyle&quot;:&quot;elbowEdgeStyle&quot;,&quot;elbow&quot;:&quot;vertical&quot;,&quot;curved&quot;:0,&quot;rounded&quot;:0};fillColor=none;" vertex="1" parent="MSEH762dAfrZzI9FpVPi-22">
          <mxGeometry x="35" y="70" width="30" height="200" as="geometry" />
        </mxCell>
        <mxCell id="MSEH762dAfrZzI9FpVPi-24" value="send request" style="html=1;verticalAlign=bottom;endArrow=block;edgeStyle=elbowEdgeStyle;elbow=horizontal;curved=0;rounded=0;" edge="1" parent="1">
          <mxGeometry width="80" relative="1" as="geometry">
            <mxPoint x="120" y="640" as="sourcePoint" />
            <mxPoint x="240" y="640" as="targetPoint" />
          </mxGeometry>
        </mxCell>
        <mxCell id="MSEH762dAfrZzI9FpVPi-25" value="check balance&amp;nbsp;" style="html=1;verticalAlign=bottom;endArrow=block;edgeStyle=elbowEdgeStyle;elbow=horizontal;curved=0;rounded=0;" edge="1" parent="1">
          <mxGeometry width="80" relative="1" as="geometry">
            <mxPoint x="270" y="640" as="sourcePoint" />
            <mxPoint x="390" y="640" as="targetPoint" />
            <Array as="points">
              <mxPoint x="340" y="630" />
            </Array>
          </mxGeometry>
        </mxCell>
        <mxCell id="MSEH762dAfrZzI9FpVPi-26" value="Request send" style="html=1;verticalAlign=bottom;endArrow=block;edgeStyle=elbowEdgeStyle;elbow=vertical;curved=0;rounded=0;" edge="1" parent="1" target="MSEH762dAfrZzI9FpVPi-23">
          <mxGeometry width="80" relative="1" as="geometry">
            <mxPoint x="425" y="640" as="sourcePoint" />
            <mxPoint x="545" y="640" as="targetPoint" />
          </mxGeometry>
        </mxCell>
        <mxCell id="MSEH762dAfrZzI9FpVPi-29" value="balance&amp;nbsp;" style="html=1;verticalAlign=bottom;endArrow=open;dashed=1;endSize=8;edgeStyle=elbowEdgeStyle;elbow=vertical;curved=0;rounded=0;" edge="1" parent="1" target="MSEH762dAfrZzI9FpVPi-18">
          <mxGeometry relative="1" as="geometry">
            <mxPoint x="560" y="760" as="sourcePoint" />
            <mxPoint x="480" y="760" as="targetPoint" />
          </mxGeometry>
        </mxCell>
        <mxCell id="MSEH762dAfrZzI9FpVPi-30" value="User" style="text;align=center;fontStyle=1;verticalAlign=middle;spacingLeft=3;spacingRight=3;strokeColor=none;rotatable=0;points=[[0,0.5],[1,0.5]];portConstraint=eastwest;html=1;" vertex="1" parent="1">
          <mxGeometry x="65" y="570" width="80" height="26" as="geometry" />
        </mxCell>
        <mxCell id="MSEH762dAfrZzI9FpVPi-52" value="deposit money" style="shape=umlLifeline;perimeter=lifelinePerimeter;whiteSpace=wrap;html=1;container=1;dropTarget=0;collapsible=0;recursiveResize=0;outlineConnect=0;portConstraint=eastwest;newEdgeStyle={&quot;edgeStyle&quot;:&quot;elbowEdgeStyle&quot;,&quot;elbow&quot;:&quot;vertical&quot;,&quot;curved&quot;:0,&quot;rounded&quot;:0};" vertex="1" parent="1">
          <mxGeometry x="200" y="1198" width="100" height="260" as="geometry" />
        </mxCell>
        <mxCell id="MSEH762dAfrZzI9FpVPi-53" value="" style="html=1;points=[];perimeter=orthogonalPerimeter;outlineConnect=0;targetShapes=umlLifeline;portConstraint=eastwest;newEdgeStyle={&quot;edgeStyle&quot;:&quot;elbowEdgeStyle&quot;,&quot;elbow&quot;:&quot;vertical&quot;,&quot;curved&quot;:0,&quot;rounded&quot;:0};fillColor=none;" vertex="1" parent="MSEH762dAfrZzI9FpVPi-52">
          <mxGeometry x="30" y="60" width="40" height="120" as="geometry" />
        </mxCell>
        <mxCell id="MSEH762dAfrZzI9FpVPi-54" value="validate&amp;nbsp;" style="shape=umlLifeline;perimeter=lifelinePerimeter;whiteSpace=wrap;html=1;container=1;dropTarget=0;collapsible=0;recursiveResize=0;outlineConnect=0;portConstraint=eastwest;newEdgeStyle={&quot;edgeStyle&quot;:&quot;elbowEdgeStyle&quot;,&quot;elbow&quot;:&quot;vertical&quot;,&quot;curved&quot;:0,&quot;rounded&quot;:0};" vertex="1" parent="1">
          <mxGeometry x="360" y="1198" width="100" height="260" as="geometry" />
        </mxCell>
        <mxCell id="MSEH762dAfrZzI9FpVPi-55" value="" style="html=1;points=[];perimeter=orthogonalPerimeter;outlineConnect=0;targetShapes=umlLifeline;portConstraint=eastwest;newEdgeStyle={&quot;edgeStyle&quot;:&quot;elbowEdgeStyle&quot;,&quot;elbow&quot;:&quot;vertical&quot;,&quot;curved&quot;:0,&quot;rounded&quot;:0};fillColor=none;" vertex="1" parent="MSEH762dAfrZzI9FpVPi-54">
          <mxGeometry x="30" y="60" width="40" height="110" as="geometry" />
        </mxCell>
        <mxCell id="MSEH762dAfrZzI9FpVPi-56" value="bank server" style="shape=umlLifeline;perimeter=lifelinePerimeter;whiteSpace=wrap;html=1;container=1;dropTarget=0;collapsible=0;recursiveResize=0;outlineConnect=0;portConstraint=eastwest;newEdgeStyle={&quot;edgeStyle&quot;:&quot;elbowEdgeStyle&quot;,&quot;elbow&quot;:&quot;vertical&quot;,&quot;curved&quot;:0,&quot;rounded&quot;:0};" vertex="1" parent="1">
          <mxGeometry x="520" y="1198" width="100" height="262" as="geometry" />
        </mxCell>
        <mxCell id="MSEH762dAfrZzI9FpVPi-57" value="" style="html=1;points=[];perimeter=orthogonalPerimeter;outlineConnect=0;targetShapes=umlLifeline;portConstraint=eastwest;newEdgeStyle={&quot;edgeStyle&quot;:&quot;elbowEdgeStyle&quot;,&quot;elbow&quot;:&quot;vertical&quot;,&quot;curved&quot;:0,&quot;rounded&quot;:0};fillColor=none;" vertex="1" parent="MSEH762dAfrZzI9FpVPi-56">
          <mxGeometry x="30" y="60" width="40" height="150" as="geometry" />
        </mxCell>
        <mxCell id="MSEH762dAfrZzI9FpVPi-58" value="user" style="shape=umlLifeline;perimeter=lifelinePerimeter;whiteSpace=wrap;html=1;container=1;dropTarget=0;collapsible=0;recursiveResize=0;outlineConnect=0;portConstraint=eastwest;newEdgeStyle={&quot;edgeStyle&quot;:&quot;elbowEdgeStyle&quot;,&quot;elbow&quot;:&quot;vertical&quot;,&quot;curved&quot;:0,&quot;rounded&quot;:0};" vertex="1" parent="1">
          <mxGeometry x="50" y="1198" width="100" height="272" as="geometry" />
        </mxCell>
        <mxCell id="MSEH762dAfrZzI9FpVPi-59" value="" style="html=1;points=[];perimeter=orthogonalPerimeter;outlineConnect=0;targetShapes=umlLifeline;portConstraint=eastwest;newEdgeStyle={&quot;edgeStyle&quot;:&quot;elbowEdgeStyle&quot;,&quot;elbow&quot;:&quot;vertical&quot;,&quot;curved&quot;:0,&quot;rounded&quot;:0};fillColor=none;" vertex="1" parent="MSEH762dAfrZzI9FpVPi-58">
          <mxGeometry x="30" y="60" width="40" height="200" as="geometry" />
        </mxCell>
        <mxCell id="MSEH762dAfrZzI9FpVPi-60" value="" style="shape=umlActor;verticalLabelPosition=bottom;verticalAlign=top;html=1;" vertex="1" parent="1">
          <mxGeometry x="80" y="1138" width="30" height="60" as="geometry" />
        </mxCell>
        <mxCell id="MSEH762dAfrZzI9FpVPi-61" value="&lt;span style=&quot;font-size: 10px;&quot;&gt;send account detail&lt;/span&gt;" style="html=1;verticalAlign=bottom;endArrow=block;edgeStyle=elbowEdgeStyle;elbow=vertical;curved=0;rounded=0;" edge="1" parent="1" target="MSEH762dAfrZzI9FpVPi-53">
          <mxGeometry width="80" relative="1" as="geometry">
            <mxPoint x="120" y="1298" as="sourcePoint" />
            <mxPoint x="200" y="1298" as="targetPoint" />
          </mxGeometry>
        </mxCell>
        <mxCell id="MSEH762dAfrZzI9FpVPi-62" value="check details" style="html=1;verticalAlign=bottom;endArrow=block;edgeStyle=elbowEdgeStyle;elbow=vertical;curved=0;rounded=0;" edge="1" parent="1">
          <mxGeometry width="80" relative="1" as="geometry">
            <mxPoint x="280" y="1298" as="sourcePoint" />
            <mxPoint x="390" y="1298" as="targetPoint" />
          </mxGeometry>
        </mxCell>
        <mxCell id="MSEH762dAfrZzI9FpVPi-63" value="validation is ok" style="html=1;verticalAlign=bottom;endArrow=block;edgeStyle=elbowEdgeStyle;elbow=vertical;curved=0;rounded=0;" edge="1" parent="1" target="MSEH762dAfrZzI9FpVPi-57">
          <mxGeometry width="80" relative="1" as="geometry">
            <mxPoint x="430" y="1298" as="sourcePoint" />
            <mxPoint x="540" y="1298" as="targetPoint" />
          </mxGeometry>
        </mxCell>
        <mxCell id="MSEH762dAfrZzI9FpVPi-64" value="" style="endArrow=block;dashed=1;endFill=0;endSize=12;html=1;rounded=0;" edge="1" parent="1">
          <mxGeometry width="160" relative="1" as="geometry">
            <mxPoint x="385" y="1347.5" as="sourcePoint" />
            <mxPoint x="115" y="1347.5" as="targetPoint" />
          </mxGeometry>
        </mxCell>
        <mxCell id="MSEH762dAfrZzI9FpVPi-65" value="&lt;font style=&quot;font-size: 10px;&quot;&gt;&lt;span style=&quot;font-weight: normal;&quot;&gt;return validation&lt;/span&gt; &lt;span style=&quot;font-weight: normal;&quot;&gt;fails&lt;/span&gt;&lt;/font&gt;" style="text;align=center;fontStyle=1;verticalAlign=middle;spacingLeft=3;spacingRight=3;strokeColor=none;rotatable=0;points=[[0,0.5],[1,0.5]];portConstraint=eastwest;html=1;" vertex="1" parent="1">
          <mxGeometry x="290" y="1320" width="80" height="26" as="geometry" />
        </mxCell>
        <mxCell id="MSEH762dAfrZzI9FpVPi-68" value="Database" style="shape=umlLifeline;perimeter=lifelinePerimeter;whiteSpace=wrap;html=1;container=1;dropTarget=0;collapsible=0;recursiveResize=0;outlineConnect=0;portConstraint=eastwest;newEdgeStyle={&quot;edgeStyle&quot;:&quot;elbowEdgeStyle&quot;,&quot;elbow&quot;:&quot;vertical&quot;,&quot;curved&quot;:0,&quot;rounded&quot;:0};" vertex="1" parent="1">
          <mxGeometry x="680" y="1198" width="100" height="262" as="geometry" />
        </mxCell>
        <mxCell id="MSEH762dAfrZzI9FpVPi-71" value="" style="html=1;points=[];perimeter=orthogonalPerimeter;outlineConnect=0;targetShapes=umlLifeline;portConstraint=eastwest;newEdgeStyle={&quot;edgeStyle&quot;:&quot;elbowEdgeStyle&quot;,&quot;elbow&quot;:&quot;vertical&quot;,&quot;curved&quot;:0,&quot;rounded&quot;:0};fillColor=none;" vertex="1" parent="MSEH762dAfrZzI9FpVPi-68">
          <mxGeometry x="30" y="60" width="40" height="190" as="geometry" />
        </mxCell>
        <mxCell id="MSEH762dAfrZzI9FpVPi-70" value="" style="html=1;verticalAlign=bottom;endArrow=block;edgeStyle=elbowEdgeStyle;elbow=vertical;curved=0;rounded=0;" edge="1" parent="1">
          <mxGeometry width="80" relative="1" as="geometry">
            <mxPoint x="590" y="1300" as="sourcePoint" />
            <mxPoint x="710" y="1300" as="targetPoint" />
          </mxGeometry>
        </mxCell>
        <mxCell id="MSEH762dAfrZzI9FpVPi-73" value="&lt;span style=&quot;font-weight: normal;&quot;&gt;Update&lt;/span&gt; &lt;span style=&quot;font-weight: normal;&quot;&gt;details&lt;/span&gt;" style="text;align=center;fontStyle=1;verticalAlign=middle;spacingLeft=3;spacingRight=3;strokeColor=none;rotatable=0;points=[[0,0.5],[1,0.5]];portConstraint=eastwest;html=1;" vertex="1" parent="1">
          <mxGeometry x="610" y="1280" width="80" height="26" as="geometry" />
        </mxCell>
        <mxCell id="MSEH762dAfrZzI9FpVPi-75" value="Money deposited" style="html=1;verticalAlign=bottom;endArrow=open;dashed=1;endSize=8;edgeStyle=elbowEdgeStyle;elbow=vertical;curved=0;rounded=0;" edge="1" parent="1">
          <mxGeometry relative="1" as="geometry">
            <mxPoint x="729.5" y="1422" as="sourcePoint" />
            <mxPoint x="120" y="1422" as="targetPoint" />
          </mxGeometry>
        </mxCell>
        <mxCell id="MSEH762dAfrZzI9FpVPi-86" value="transfer money" style="shape=umlLifeline;perimeter=lifelinePerimeter;whiteSpace=wrap;html=1;container=1;dropTarget=0;collapsible=0;recursiveResize=0;outlineConnect=0;portConstraint=eastwest;newEdgeStyle={&quot;edgeStyle&quot;:&quot;elbowEdgeStyle&quot;,&quot;elbow&quot;:&quot;vertical&quot;,&quot;curved&quot;:0,&quot;rounded&quot;:0};" vertex="1" parent="1">
          <mxGeometry x="215" y="1740" width="100" height="330" as="geometry" />
        </mxCell>
        <mxCell id="MSEH762dAfrZzI9FpVPi-87" value="" style="html=1;points=[];perimeter=orthogonalPerimeter;outlineConnect=0;targetShapes=umlLifeline;portConstraint=eastwest;newEdgeStyle={&quot;edgeStyle&quot;:&quot;elbowEdgeStyle&quot;,&quot;elbow&quot;:&quot;vertical&quot;,&quot;curved&quot;:0,&quot;rounded&quot;:0};fillColor=none;strokeColor=default;" vertex="1" parent="MSEH762dAfrZzI9FpVPi-86">
          <mxGeometry x="35" y="75" width="30" height="135" as="geometry" />
        </mxCell>
        <mxCell id="MSEH762dAfrZzI9FpVPi-89" value="" style="shape=umlLifeline;perimeter=lifelinePerimeter;whiteSpace=wrap;html=1;container=1;dropTarget=0;collapsible=0;recursiveResize=0;outlineConnect=0;portConstraint=eastwest;newEdgeStyle={&quot;edgeStyle&quot;:&quot;elbowEdgeStyle&quot;,&quot;elbow&quot;:&quot;vertical&quot;,&quot;curved&quot;:0,&quot;rounded&quot;:0};participant=umlActor;" vertex="1" parent="1">
          <mxGeometry x="100" y="1740" width="25" height="330" as="geometry" />
        </mxCell>
        <mxCell id="MSEH762dAfrZzI9FpVPi-88" value="" style="html=1;points=[];perimeter=orthogonalPerimeter;outlineConnect=0;targetShapes=umlLifeline;portConstraint=eastwest;newEdgeStyle={&quot;edgeStyle&quot;:&quot;elbowEdgeStyle&quot;,&quot;elbow&quot;:&quot;vertical&quot;,&quot;curved&quot;:0,&quot;rounded&quot;:0};fillColor=none;" vertex="1" parent="MSEH762dAfrZzI9FpVPi-89">
          <mxGeometry x="-5" y="75" width="30" height="255" as="geometry" />
        </mxCell>
        <mxCell id="MSEH762dAfrZzI9FpVPi-90" value="validate&amp;nbsp;" style="shape=umlLifeline;perimeter=lifelinePerimeter;whiteSpace=wrap;html=1;container=1;dropTarget=0;collapsible=0;recursiveResize=0;outlineConnect=0;portConstraint=eastwest;newEdgeStyle={&quot;edgeStyle&quot;:&quot;elbowEdgeStyle&quot;,&quot;elbow&quot;:&quot;vertical&quot;,&quot;curved&quot;:0,&quot;rounded&quot;:0};" vertex="1" parent="1">
          <mxGeometry x="340" y="1740" width="100" height="330" as="geometry" />
        </mxCell>
        <mxCell id="MSEH762dAfrZzI9FpVPi-91" value="" style="html=1;points=[];perimeter=orthogonalPerimeter;outlineConnect=0;targetShapes=umlLifeline;portConstraint=eastwest;newEdgeStyle={&quot;edgeStyle&quot;:&quot;elbowEdgeStyle&quot;,&quot;elbow&quot;:&quot;vertical&quot;,&quot;curved&quot;:0,&quot;rounded&quot;:0};fillColor=none;" vertex="1" parent="MSEH762dAfrZzI9FpVPi-90">
          <mxGeometry x="35" y="70" width="30" height="140" as="geometry" />
        </mxCell>
        <mxCell id="MSEH762dAfrZzI9FpVPi-92" value="Transaction history" style="shape=umlLifeline;perimeter=lifelinePerimeter;whiteSpace=wrap;html=1;container=1;dropTarget=0;collapsible=0;recursiveResize=0;outlineConnect=0;portConstraint=eastwest;newEdgeStyle={&quot;edgeStyle&quot;:&quot;elbowEdgeStyle&quot;,&quot;elbow&quot;:&quot;vertical&quot;,&quot;curved&quot;:0,&quot;rounded&quot;:0};" vertex="1" parent="1">
          <mxGeometry x="480" y="1740" width="100" height="350" as="geometry" />
        </mxCell>
        <mxCell id="MSEH762dAfrZzI9FpVPi-93" value="" style="html=1;points=[];perimeter=orthogonalPerimeter;outlineConnect=0;targetShapes=umlLifeline;portConstraint=eastwest;newEdgeStyle={&quot;edgeStyle&quot;:&quot;elbowEdgeStyle&quot;,&quot;elbow&quot;:&quot;vertical&quot;,&quot;curved&quot;:0,&quot;rounded&quot;:0};fillColor=none;" vertex="1" parent="MSEH762dAfrZzI9FpVPi-92">
          <mxGeometry x="40" y="195" width="30" height="140" as="geometry" />
        </mxCell>
        <mxCell id="MSEH762dAfrZzI9FpVPi-94" value="send&amp;nbsp; account detail" style="html=1;verticalAlign=bottom;endArrow=block;edgeStyle=elbowEdgeStyle;elbow=horizontal;curved=0;rounded=0;" edge="1" parent="1">
          <mxGeometry width="80" relative="1" as="geometry">
            <mxPoint x="125" y="1850" as="sourcePoint" />
            <mxPoint x="245" y="1850" as="targetPoint" />
          </mxGeometry>
        </mxCell>
        <mxCell id="MSEH762dAfrZzI9FpVPi-95" value="" style="html=1;verticalAlign=bottom;endArrow=block;edgeStyle=elbowEdgeStyle;elbow=horizontal;curved=0;rounded=0;" edge="1" parent="1">
          <mxGeometry width="80" relative="1" as="geometry">
            <mxPoint x="280" y="1850" as="sourcePoint" />
            <mxPoint x="370" y="1850" as="targetPoint" />
            <Array as="points">
              <mxPoint x="350" y="1830" />
            </Array>
          </mxGeometry>
        </mxCell>
        <mxCell id="MSEH762dAfrZzI9FpVPi-98" value="User" style="text;align=center;fontStyle=1;verticalAlign=middle;spacingLeft=3;spacingRight=3;strokeColor=none;rotatable=0;points=[[0,0.5],[1,0.5]];portConstraint=eastwest;html=1;" vertex="1" parent="1">
          <mxGeometry x="110" y="1780" width="80" height="26" as="geometry" />
        </mxCell>
        <mxCell id="MSEH762dAfrZzI9FpVPi-99" value="bank server" style="shape=umlLifeline;perimeter=lifelinePerimeter;whiteSpace=wrap;html=1;container=1;dropTarget=0;collapsible=0;recursiveResize=0;outlineConnect=0;portConstraint=eastwest;newEdgeStyle={&quot;edgeStyle&quot;:&quot;elbowEdgeStyle&quot;,&quot;elbow&quot;:&quot;vertical&quot;,&quot;curved&quot;:0,&quot;rounded&quot;:0};" vertex="1" parent="1">
          <mxGeometry x="620" y="1740" width="100" height="330" as="geometry" />
        </mxCell>
        <mxCell id="MSEH762dAfrZzI9FpVPi-100" value="" style="html=1;points=[];perimeter=orthogonalPerimeter;outlineConnect=0;targetShapes=umlLifeline;portConstraint=eastwest;newEdgeStyle={&quot;edgeStyle&quot;:&quot;elbowEdgeStyle&quot;,&quot;elbow&quot;:&quot;vertical&quot;,&quot;curved&quot;:0,&quot;rounded&quot;:0};fillColor=none;" vertex="1" parent="MSEH762dAfrZzI9FpVPi-99">
          <mxGeometry x="35" y="65" width="30" height="265" as="geometry" />
        </mxCell>
        <mxCell id="MSEH762dAfrZzI9FpVPi-101" value="Data base" style="shape=umlLifeline;perimeter=lifelinePerimeter;whiteSpace=wrap;html=1;container=1;dropTarget=0;collapsible=0;recursiveResize=0;outlineConnect=0;portConstraint=eastwest;newEdgeStyle={&quot;edgeStyle&quot;:&quot;elbowEdgeStyle&quot;,&quot;elbow&quot;:&quot;vertical&quot;,&quot;curved&quot;:0,&quot;rounded&quot;:0};" vertex="1" parent="1">
          <mxGeometry x="750" y="1740" width="100" height="330" as="geometry" />
        </mxCell>
        <mxCell id="MSEH762dAfrZzI9FpVPi-102" value="" style="html=1;points=[];perimeter=orthogonalPerimeter;outlineConnect=0;targetShapes=umlLifeline;portConstraint=eastwest;newEdgeStyle={&quot;edgeStyle&quot;:&quot;elbowEdgeStyle&quot;,&quot;elbow&quot;:&quot;vertical&quot;,&quot;curved&quot;:0,&quot;rounded&quot;:0};fillColor=none;" vertex="1" parent="MSEH762dAfrZzI9FpVPi-101">
          <mxGeometry x="35" y="65" width="30" height="265" as="geometry" />
        </mxCell>
        <mxCell id="MSEH762dAfrZzI9FpVPi-104" value="&lt;span style=&quot;font-weight: normal;&quot;&gt;&lt;font style=&quot;font-size: 10px;&quot;&gt;Check details&lt;/font&gt;&lt;/span&gt;" style="text;align=center;fontStyle=1;verticalAlign=middle;spacingLeft=3;spacingRight=3;strokeColor=none;rotatable=0;points=[[0,0.5],[1,0.5]];portConstraint=eastwest;html=1;" vertex="1" parent="1">
          <mxGeometry x="290" y="1830" width="70" height="26" as="geometry" />
        </mxCell>
        <mxCell id="MSEH762dAfrZzI9FpVPi-105" value="validation successful" style="html=1;verticalAlign=bottom;endArrow=block;edgeStyle=elbowEdgeStyle;elbow=vertical;curved=0;rounded=0;" edge="1" parent="1">
          <mxGeometry x="-0.5528" y="1" width="80" relative="1" as="geometry">
            <mxPoint x="405" y="1851" as="sourcePoint" />
            <mxPoint x="650" y="1850" as="targetPoint" />
            <Array as="points">
              <mxPoint x="640" y="1850" />
            </Array>
            <mxPoint as="offset" />
          </mxGeometry>
        </mxCell>
        <mxCell id="MSEH762dAfrZzI9FpVPi-106" value="udpdate transaction&amp;nbsp;&lt;br&gt;&amp;nbsp;details" style="html=1;verticalAlign=bottom;endArrow=block;edgeStyle=elbowEdgeStyle;elbow=vertical;curved=0;rounded=0;" edge="1" parent="1">
          <mxGeometry width="80" relative="1" as="geometry">
            <mxPoint x="689" y="1850" as="sourcePoint" />
            <mxPoint x="780" y="1850" as="targetPoint" />
            <Array as="points">
              <mxPoint x="749" y="1850" />
            </Array>
          </mxGeometry>
        </mxCell>
        <mxCell id="8_799_SWIJla3zXmq7OY-2" value="transfer success full" style="html=1;verticalAlign=bottom;endArrow=open;dashed=1;endSize=8;edgeStyle=elbowEdgeStyle;elbow=vertical;curved=0;rounded=0;" edge="1" parent="1" source="MSEH762dAfrZzI9FpVPi-102">
          <mxGeometry relative="1" as="geometry">
            <mxPoint x="460" y="1921" as="sourcePoint" />
            <mxPoint x="130" y="1930" as="targetPoint" />
          </mxGeometry>
        </mxCell>
        <mxCell id="8_799_SWIJla3zXmq7OY-3" value="validation fails" style="html=1;verticalAlign=bottom;endArrow=open;dashed=1;endSize=8;edgeStyle=elbowEdgeStyle;elbow=vertical;curved=0;rounded=0;" edge="1" parent="1" target="MSEH762dAfrZzI9FpVPi-88">
          <mxGeometry x="0.4715" y="-9" relative="1" as="geometry">
            <mxPoint x="371" y="1889" as="sourcePoint" />
            <mxPoint x="291" y="1889" as="targetPoint" />
            <mxPoint as="offset" />
          </mxGeometry>
        </mxCell>
        <mxCell id="8_799_SWIJla3zXmq7OY-4" value="Request&amp;nbsp; transaction history&amp;nbsp;" style="html=1;verticalAlign=bottom;endArrow=block;edgeStyle=elbowEdgeStyle;elbow=vertical;curved=0;rounded=0;" edge="1" parent="1">
          <mxGeometry width="80" relative="1" as="geometry">
            <mxPoint x="125" y="2010" as="sourcePoint" />
            <mxPoint x="520" y="2010" as="targetPoint" />
            <mxPoint as="offset" />
          </mxGeometry>
        </mxCell>
        <mxCell id="8_799_SWIJla3zXmq7OY-5" value="Send request" style="html=1;verticalAlign=bottom;endArrow=block;edgeStyle=elbowEdgeStyle;elbow=vertical;curved=0;rounded=0;" edge="1" parent="1">
          <mxGeometry y="10" width="80" relative="1" as="geometry">
            <mxPoint x="550" y="2010" as="sourcePoint" />
            <mxPoint x="650" y="2010" as="targetPoint" />
            <mxPoint as="offset" />
          </mxGeometry>
        </mxCell>
        <mxCell id="8_799_SWIJla3zXmq7OY-6" value="request history" style="html=1;verticalAlign=bottom;endArrow=block;edgeStyle=elbowEdgeStyle;elbow=vertical;curved=0;rounded=0;" edge="1" parent="1">
          <mxGeometry y="10" width="80" relative="1" as="geometry">
            <mxPoint x="682" y="2010" as="sourcePoint" />
            <mxPoint x="782" y="2010" as="targetPoint" />
            <mxPoint as="offset" />
          </mxGeometry>
        </mxCell>
        <mxCell id="8_799_SWIJla3zXmq7OY-7" value="Return history" style="html=1;verticalAlign=bottom;endArrow=open;dashed=1;endSize=8;edgeStyle=elbowEdgeStyle;elbow=vertical;curved=0;rounded=0;" edge="1" parent="1" source="MSEH762dAfrZzI9FpVPi-102">
          <mxGeometry relative="1" as="geometry">
            <mxPoint x="799.5" y="2052" as="sourcePoint" />
            <mxPoint x="125" y="2052" as="targetPoint" />
          </mxGeometry>
        </mxCell>
        <mxCell id="8_799_SWIJla3zXmq7OY-8" value="CREATE ACCOUNT&amp;nbsp;" style="text;align=center;fontStyle=1;verticalAlign=middle;spacingLeft=3;spacingRight=3;strokeColor=none;rotatable=0;points=[[0,0.5],[1,0.5]];portConstraint=eastwest;html=1;" vertex="1" parent="1">
          <mxGeometry x="60" y="20" width="110" height="26" as="geometry" />
        </mxCell>
        <mxCell id="8_799_SWIJla3zXmq7OY-9" value="CHECK BALANCE&amp;nbsp;" style="text;align=center;fontStyle=1;verticalAlign=middle;spacingLeft=3;spacingRight=3;strokeColor=none;rotatable=0;points=[[0,0.5],[1,0.5]];portConstraint=eastwest;html=1;" vertex="1" parent="1">
          <mxGeometry x="60" y="450" width="120" height="26" as="geometry" />
        </mxCell>
        <mxCell id="8_799_SWIJla3zXmq7OY-11" value="DEPOSIT MONEY" style="text;align=center;fontStyle=1;verticalAlign=middle;spacingLeft=3;spacingRight=3;strokeColor=none;rotatable=0;points=[[0,0.5],[1,0.5]];portConstraint=eastwest;html=1;" vertex="1" parent="1">
          <mxGeometry x="30" y="1112" width="110" height="26" as="geometry" />
        </mxCell>
        <mxCell id="8_799_SWIJla3zXmq7OY-12" value="TRANSFER MONEY AND CHECK TRANSACTION HISTORY&amp;nbsp;" style="text;align=center;fontStyle=1;verticalAlign=middle;spacingLeft=3;spacingRight=3;strokeColor=none;rotatable=0;points=[[0,0.5],[1,0.5]];portConstraint=eastwest;html=1;" vertex="1" parent="1">
          <mxGeometry x="80" y="1630" width="360" height="26" as="geometry" />
        </mxCell>
        <mxCell id="8_799_SWIJla3zXmq7OY-14" value="" style="shape=umlLifeline;perimeter=lifelinePerimeter;whiteSpace=wrap;html=1;container=1;dropTarget=0;collapsible=0;recursiveResize=0;outlineConnect=0;portConstraint=eastwest;newEdgeStyle={&quot;edgeStyle&quot;:&quot;elbowEdgeStyle&quot;,&quot;elbow&quot;:&quot;vertical&quot;,&quot;curved&quot;:0,&quot;rounded&quot;:0};participant=umlActor;" vertex="1" parent="1">
          <mxGeometry x="125" y="2290" width="30" height="230" as="geometry" />
        </mxCell>
        <mxCell id="8_799_SWIJla3zXmq7OY-19" value="" style="html=1;points=[];perimeter=orthogonalPerimeter;outlineConnect=0;targetShapes=umlLifeline;portConstraint=eastwest;newEdgeStyle={&quot;edgeStyle&quot;:&quot;elbowEdgeStyle&quot;,&quot;elbow&quot;:&quot;vertical&quot;,&quot;curved&quot;:0,&quot;rounded&quot;:0};fillColor=default;" vertex="1" parent="8_799_SWIJla3zXmq7OY-14">
          <mxGeometry x="5" y="61" width="25" height="159" as="geometry" />
        </mxCell>
        <mxCell id="8_799_SWIJla3zXmq7OY-15" value="Withdraw money" style="shape=umlLifeline;perimeter=lifelinePerimeter;whiteSpace=wrap;html=1;container=1;dropTarget=0;collapsible=0;recursiveResize=0;outlineConnect=0;portConstraint=eastwest;newEdgeStyle={&quot;edgeStyle&quot;:&quot;elbowEdgeStyle&quot;,&quot;elbow&quot;:&quot;vertical&quot;,&quot;curved&quot;:0,&quot;rounded&quot;:0};" vertex="1" parent="1">
          <mxGeometry x="210" y="2290" width="100" height="220" as="geometry" />
        </mxCell>
        <mxCell id="8_799_SWIJla3zXmq7OY-20" value="" style="html=1;points=[];perimeter=orthogonalPerimeter;outlineConnect=0;targetShapes=umlLifeline;portConstraint=eastwest;newEdgeStyle={&quot;edgeStyle&quot;:&quot;elbowEdgeStyle&quot;,&quot;elbow&quot;:&quot;vertical&quot;,&quot;curved&quot;:0,&quot;rounded&quot;:0};fillColor=default;" vertex="1" parent="8_799_SWIJla3zXmq7OY-15">
          <mxGeometry x="40" y="70" width="25" height="80" as="geometry" />
        </mxCell>
        <mxCell id="8_799_SWIJla3zXmq7OY-16" value="Bank server" style="shape=umlLifeline;perimeter=lifelinePerimeter;whiteSpace=wrap;html=1;container=1;dropTarget=0;collapsible=0;recursiveResize=0;outlineConnect=0;portConstraint=eastwest;newEdgeStyle={&quot;edgeStyle&quot;:&quot;elbowEdgeStyle&quot;,&quot;elbow&quot;:&quot;vertical&quot;,&quot;curved&quot;:0,&quot;rounded&quot;:0};" vertex="1" parent="1">
          <mxGeometry x="360" y="2281" width="100" height="229" as="geometry" />
        </mxCell>
        <mxCell id="8_799_SWIJla3zXmq7OY-22" value="" style="html=1;points=[];perimeter=orthogonalPerimeter;outlineConnect=0;targetShapes=umlLifeline;portConstraint=eastwest;newEdgeStyle={&quot;edgeStyle&quot;:&quot;elbowEdgeStyle&quot;,&quot;elbow&quot;:&quot;vertical&quot;,&quot;curved&quot;:0,&quot;rounded&quot;:0};fillColor=default;" vertex="1" parent="8_799_SWIJla3zXmq7OY-16">
          <mxGeometry x="40" y="70" width="25" height="80" as="geometry" />
        </mxCell>
        <mxCell id="8_799_SWIJla3zXmq7OY-17" value="DataBase" style="shape=umlLifeline;perimeter=lifelinePerimeter;whiteSpace=wrap;html=1;container=1;dropTarget=0;collapsible=0;recursiveResize=0;outlineConnect=0;portConstraint=eastwest;newEdgeStyle={&quot;edgeStyle&quot;:&quot;elbowEdgeStyle&quot;,&quot;elbow&quot;:&quot;vertical&quot;,&quot;curved&quot;:0,&quot;rounded&quot;:0};" vertex="1" parent="1">
          <mxGeometry x="500" y="2281" width="100" height="229" as="geometry" />
        </mxCell>
        <mxCell id="8_799_SWIJla3zXmq7OY-27" value="" style="html=1;points=[];perimeter=orthogonalPerimeter;outlineConnect=0;targetShapes=umlLifeline;portConstraint=eastwest;newEdgeStyle={&quot;edgeStyle&quot;:&quot;elbowEdgeStyle&quot;,&quot;elbow&quot;:&quot;vertical&quot;,&quot;curved&quot;:0,&quot;rounded&quot;:0};fillColor=default;" vertex="1" parent="8_799_SWIJla3zXmq7OY-17">
          <mxGeometry x="40" y="70" width="25" height="140" as="geometry" />
        </mxCell>
        <mxCell id="8_799_SWIJla3zXmq7OY-23" value="&lt;font style=&quot;font-size: 10px;&quot;&gt;Send&lt;/font&gt; &lt;font style=&quot;font-size: 10px;&quot;&gt;account&lt;/font&gt; &lt;font style=&quot;font-size: 10px;&quot;&gt;detail&lt;/font&gt;" style="html=1;verticalAlign=bottom;endArrow=block;edgeStyle=elbowEdgeStyle;elbow=vertical;curved=0;rounded=0;" edge="1" parent="1">
          <mxGeometry width="80" relative="1" as="geometry">
            <mxPoint x="160" y="2391" as="sourcePoint" />
            <mxPoint x="240" y="2391" as="targetPoint" />
            <mxPoint as="offset" />
          </mxGeometry>
        </mxCell>
        <mxCell id="8_799_SWIJla3zXmq7OY-24" value="&lt;span style=&quot;font-size: 10px;&quot;&gt;Request server&amp;nbsp;&amp;nbsp;&lt;/span&gt;" style="html=1;verticalAlign=bottom;endArrow=block;edgeStyle=elbowEdgeStyle;elbow=vertical;curved=0;rounded=0;" edge="1" parent="1">
          <mxGeometry width="80" relative="1" as="geometry">
            <mxPoint x="280" y="2391" as="sourcePoint" />
            <mxPoint x="400" y="2391" as="targetPoint" />
            <mxPoint as="offset" />
          </mxGeometry>
        </mxCell>
        <mxCell id="8_799_SWIJla3zXmq7OY-25" value="&lt;span style=&quot;font-size: 10px;&quot;&gt;Update details&amp;nbsp;&lt;/span&gt;" style="html=1;verticalAlign=bottom;endArrow=block;edgeStyle=elbowEdgeStyle;elbow=vertical;curved=0;rounded=0;" edge="1" parent="1" target="8_799_SWIJla3zXmq7OY-27">
          <mxGeometry width="80" relative="1" as="geometry">
            <mxPoint x="425" y="2394" as="sourcePoint" />
            <mxPoint x="530" y="2394" as="targetPoint" />
            <mxPoint as="offset" />
          </mxGeometry>
        </mxCell>
        <mxCell id="8_799_SWIJla3zXmq7OY-30" value="Withdraw successfull" style="html=1;verticalAlign=bottom;endArrow=open;dashed=1;endSize=8;edgeStyle=elbowEdgeStyle;elbow=vertical;curved=0;rounded=0;" edge="1" parent="1">
          <mxGeometry relative="1" as="geometry">
            <mxPoint x="540" y="2481" as="sourcePoint" />
            <mxPoint x="160" y="2481" as="targetPoint" />
          </mxGeometry>
        </mxCell>
        <mxCell id="8_799_SWIJla3zXmq7OY-31" value="WITHDRAW MONEY" style="text;align=center;fontStyle=1;verticalAlign=middle;spacingLeft=3;spacingRight=3;strokeColor=none;rotatable=0;points=[[0,0.5],[1,0.5]];portConstraint=eastwest;html=1;" vertex="1" parent="1">
          <mxGeometry x="110" y="2220" width="120" height="26" as="geometry" />
        </mxCell>
      </root>
    </mxGraphModel>
  </diagram>
</mxfile>
